<svg width="80" height="80" viewBox="0 0 80 80" xmlns="http://www.w3.org/2000/svg">
  <rect width="80" height="80" rx="5" fill="#8C4FFF"/>
  <path d="M40 14C37.79 14 36 15.79 36 18C36 19.86 37.28 21.42 39 21.87V26H41V21.87C42.72 21.42 44 19.86 44 18C44 15.79 42.21 14 40 14ZM40 20C38.9 20 38 19.1 38 18C38 16.9 38.9 16 40 16C41.1 16 42 16.9 42 18C42 19.1 41.1 20 40 20Z" fill="white"/>
  <path d="M40 26C29.51 26 21 30.04 21 35V45C21 49.96 29.51 54 40 54C50.49 54 59 49.96 59 45V35C59 30.04 50.49 26 40 26ZM57 45C57 48.31 49.39 52 40 52C30.61 52 23 48.31 23 45V41.72C26.59 44.44 32.88 46 40 46C47.12 46 53.41 44.44 57 41.72V45ZM57 35C57 38.31 49.39 42 40 42C30.61 42 23 38.31 23 35C23 31.69 30.61 28 40 28C49.39 28 57 31.69 57 35Z" fill="white"/>
  <path d="M40 56V58C29.51 58 21 53.96 21 49V47C21 47 21 49 21 49C21 53.96 29.51 58 40 58C50.49 58 59 53.96 59 49V47C59 53.96 50.49 58 40 58Z" fill="white" opacity="0.5"/>
  <path d="M40 60V62C29.51 62 21 57.96 21 53V51C21 55.96 29.51 60 40 60C50.49 60 59 55.96 59 51V53C59 57.96 50.49 62 40 62Z" fill="white" opacity="0.35"/>
  <circle cx="32" cy="35" r="1.5" fill="white" opacity="0.6"/>
  <circle cx="40" cy="34" r="1.5" fill="white" opacity="0.6"/>
  <circle cx="48" cy="35" r="1.5" fill="white" opacity="0.6"/>
</svg>
